
General
Complete name                    : Beneath.the.Darkness.2011.DVDRip.XviD-OCW.avi
Format                         : AVI
Format/Info                      : Audio Video Interleave
File size                        : 1.02 GiB
Duration                       : 1h 31mn
Overall bit rate               : 1 592 Kbps
Writing library                  : MPlayer

Video
ID                             : 0
Format                         : MPEG-4 Visual
Format profile                 : Advanced Simple@L5
Format settings, BVOP            : 2
Format settings, QPel            : No
Format settings, GMC           : No warppoints
Format settings, Matrix          : Default (H.263)
Codec ID                       : XVID
Codec ID/Hint                    : XviD
Duration                       : 1h 31mn
Bit rate                       : 1 330 Kbps
Width                            : 640 pixels
Height                         : 352 pixels
Display aspect ratio           : 16:9
Frame rate                     : 29.970 fps
Color space                      : YUV
Chroma subsampling             : 4:2:0
Bit depth                        : 8 bits
Scan type                        : Progressive
Compression mode               : Lossy
Bits/(Pixel*Frame)             : 0.197
Stream size                      : 872 MiB (84%)
Writing library                  : XviD 63

Audio
ID                             : 1
Format                         : MPEG Audio
Format version                 : Version 1
Format profile                 : Layer 3
Mode                           : Joint stereo
Codec ID                       : 55
Codec ID/Hint                    : MP3
Duration                       : 1h 31mn
Bit rate mode                    : Constant
Bit rate                       : 256 Kbps
Channel(s)                     : 2 channels
Sampling rate                    : 44.1 KHz
Compression mode               : Lossy
Delay relative to video          : 33ms
Stream size                      : 168 MiB (16%)
Alignment                        : Split accross interleaves
Interleave, duration           : 500 ms (14.98 video frames)
Interleave, preload duration   : 500 ms
Writing library                  : LAME3.98.4

Plot

After watching their best friend get murdered, a group of teens struggle
to expose a local hero as the vicious killer and keep from becoming his
next victims.

Cast

Dennis Quaid ... Ely
Tony Oller ... Travis
Aimee Teegarden ... Abby
Stephen Lunsford ... Brian
Devon Werkheiser ... Danny
Brett Cullen ... Sgt. Nickerson
Dahlia Waingort ... Ms. Moore
